<?xml version="1.0" encoding="utf-8"?>
<!-- Generator: Adobe Illustrator 17.0.0, SVG Export Plug-In . SVG Version: 6.00 Build 0)  -->
<!DOCTYPE svg PUBLIC "-//W3C//DTD SVG 1.1//EN" "http://www.w3.org/Graphics/SVG/1.1/DTD/svg11.dtd">
<svg version="1.1" id="Слой_1" xmlns="http://www.w3.org/2000/svg" xmlns:xlink="http://www.w3.org/1999/xlink" x="0px" y="0px"
	 width="239.333px" height="434.425px" viewBox="0 0 239.333 434.425" enable-background="new 0 0 239.333 434.425"
	 xml:space="preserve">
<g>
	<polygon fill="#FFFFFF" stroke="#000000" stroke-width="1.0316" stroke-miterlimit="10" points="117.928,46.497 117.928,46.497 
		37.137,46.497 37.137,18.497 117.928,18.497 	"/>
	<text transform="matrix(1 0 0 1 12.8359 49.802)"><tspan x="0" y="0" font-family="'Circe-Regular'" font-size="8">#1</tspan><tspan x="-9.011" y="6" font-family="'Circe-Regular'" font-size="5">scheme </tspan></text>
	<text transform="matrix(1 0 0 1 11.6522 207.622)"><tspan x="0" y="0" font-family="'Circe-Regular'" font-size="8">#2</tspan><tspan x="-7.827" y="6" font-family="'Circe-Regular'" font-size="5">scheme </tspan></text>
	<text transform="matrix(1 0 0 1 11.6123 361.8691)"><tspan x="0" y="0" font-family="'Circe-Regular'" font-size="8">#3</tspan><tspan x="-7.787" y="6" font-family="'Circe-Regular'" font-size="5">scheme </tspan></text>
	<text transform="matrix(1 0 0 1 61.9655 35.2191)" font-family="'Circe-Regular'" font-size="7">Client asset</text>
	<polygon fill="#FFFFFF" stroke="#000000" stroke-width="1.0316" stroke-miterlimit="10" points="117.928,276.966 117.928,276.966 
		37.137,276.966 37.137,248.965 117.928,248.965 	"/>
	<text transform="matrix(1 0 0 1 46.3767 260.8686)"><tspan x="0" y="0" font-family="'Circe-Regular'" font-size="7">Smart Asset</tspan><tspan x="0" y="8.4" font-family="'Circe-Regular'" font-size="7">(token)</tspan></text>
	<g>
		
			<line fill="none" stroke="#000000" stroke-width="0.5" stroke-linecap="round" stroke-miterlimit="10" x1="75.131" y1="64.022" x2="75.131" y2="56.402"/>
		
			<line fill="none" stroke="#000000" stroke-width="0.5" stroke-linecap="round" stroke-miterlimit="10" x1="75.131" y1="55.485" x2="73.939" y2="58.43"/>
		
			<line fill="none" stroke="#000000" stroke-width="0.5" stroke-linecap="round" stroke-miterlimit="10" x1="75.131" y1="55.485" x2="76.379" y2="58.429"/>
	</g>
	<g>
		
			<line fill="none" stroke="#000000" stroke-width="0.5024" stroke-linecap="round" stroke-miterlimit="10" x1="149.578" y1="86.145" x2="136.389" y2="86.145"/>
		
			<line fill="none" stroke="#000000" stroke-width="0.5024" stroke-linecap="round" stroke-miterlimit="10" x1="135.463" y1="86.145" x2="138.437" y2="84.952"/>
		
			<line fill="none" stroke="#000000" stroke-width="0.5024" stroke-linecap="round" stroke-miterlimit="10" x1="135.464" y1="86.145" x2="138.436" y2="87.392"/>
	</g>
	<g>
		
			<line fill="none" stroke="#000000" stroke-width="0.5024" stroke-linecap="round" stroke-miterlimit="10" x1="150.041" y1="160.566" x2="136.852" y2="160.566"/>
		
			<line fill="none" stroke="#000000" stroke-width="0.5024" stroke-linecap="round" stroke-miterlimit="10" x1="135.926" y1="160.566" x2="138.9" y2="159.374"/>
		
			<line fill="none" stroke="#000000" stroke-width="0.5024" stroke-linecap="round" stroke-miterlimit="10" x1="135.927" y1="160.566" x2="138.899" y2="161.814"/>
	</g>
	<g>
		
			<line fill="none" stroke="#000000" stroke-width="0.5" stroke-linecap="round" stroke-miterlimit="10" x1="77.114" y1="222.198" x2="77.114" y2="235.262"/>
		
			<line fill="none" stroke="#000000" stroke-width="0.5" stroke-linecap="round" stroke-miterlimit="10" x1="77.114" y1="236.179" x2="78.307" y2="233.234"/>
		
			<line fill="none" stroke="#000000" stroke-width="0.5" stroke-linecap="round" stroke-miterlimit="10" x1="77.114" y1="236.178" x2="75.867" y2="233.234"/>
	</g>
	<g>
		
			<line fill="none" stroke="#000000" stroke-width="0.4079" stroke-linecap="round" stroke-miterlimit="10" x1="198.214" y1="294.123" x2="198.214" y2="302.82"/>
		
			<line fill="none" stroke="#000000" stroke-width="0.5" stroke-linecap="round" stroke-miterlimit="10" x1="198.214" y1="303.737" x2="199.406" y2="300.792"/>
		
			<line fill="none" stroke="#000000" stroke-width="0.5" stroke-linecap="round" stroke-miterlimit="10" x1="198.214" y1="303.736" x2="196.966" y2="300.792"/>
	</g>
	<g>
		
			<line fill="none" stroke="#000000" stroke-width="0.5" stroke-linecap="round" stroke-miterlimit="10" x1="76.563" y1="294.037" x2="76.563" y2="302.729"/>
		
			<line fill="none" stroke="#000000" stroke-width="0.5" stroke-linecap="round" stroke-miterlimit="10" x1="76.563" y1="303.646" x2="77.755" y2="300.701"/>
		
			<line fill="none" stroke="#000000" stroke-width="0.5" stroke-linecap="round" stroke-miterlimit="10" x1="76.563" y1="303.646" x2="75.315" y2="300.701"/>
	</g>
	<g>
		
			<line fill="none" stroke="#000000" stroke-width="0.5" stroke-linecap="round" stroke-miterlimit="10" x1="113.985" y1="293.806" x2="123.223" y2="303.044"/>
		
			<line fill="none" stroke="#000000" stroke-width="0.5" stroke-linecap="round" stroke-miterlimit="10" x1="123.871" y1="303.692" x2="122.632" y2="300.767"/>
		
			<line fill="none" stroke="#000000" stroke-width="0.5" stroke-linecap="round" stroke-miterlimit="10" x1="123.871" y1="303.692" x2="120.907" y2="302.492"/>
	</g>
	<g>
		
			<line fill="none" stroke="#000000" stroke-width="0.5" stroke-linecap="round" stroke-miterlimit="10" x1="128.473" y1="264.213" x2="141.536" y2="264.213"/>
		
			<line fill="none" stroke="#000000" stroke-width="0.5" stroke-linecap="round" stroke-miterlimit="10" x1="142.453" y1="264.213" x2="139.508" y2="265.405"/>
		
			<line fill="none" stroke="#000000" stroke-width="0.5" stroke-linecap="round" stroke-miterlimit="10" x1="142.453" y1="264.213" x2="139.509" y2="262.965"/>
	</g>
	<g>
		
			<line fill="none" stroke="#000000" stroke-width="0.5" stroke-linecap="round" stroke-miterlimit="10" x1="78.912" y1="55.526" x2="78.912" y2="63.145"/>
		
			<line fill="none" stroke="#000000" stroke-width="0.5" stroke-linecap="round" stroke-miterlimit="10" x1="78.912" y1="63.929" x2="80.104" y2="60.984"/>
		
			<line fill="none" stroke="#000000" stroke-width="0.5" stroke-linecap="round" stroke-miterlimit="10" x1="78.912" y1="63.929" x2="77.664" y2="60.984"/>
	</g>
	<g>
		
			<line fill="none" stroke="#000000" stroke-width="0.5" stroke-linecap="round" stroke-miterlimit="10" x1="75.131" y1="119.272" x2="75.131" y2="111.652"/>
		
			<line fill="none" stroke="#000000" stroke-width="0.5" stroke-linecap="round" stroke-miterlimit="10" x1="75.131" y1="110.735" x2="73.939" y2="113.68"/>
		
			<line fill="none" stroke="#000000" stroke-width="0.5" stroke-linecap="round" stroke-miterlimit="10" x1="75.131" y1="110.735" x2="76.379" y2="113.679"/>
	</g>
	<polygon fill="#FFFFFF" stroke="#000000" stroke-width="0.9527" stroke-miterlimit="10" points="228.484,174.035 228.484,174.035 
		159.581,174.035 159.581,146.035 228.484,146.035 	"/>
	<g>
		
			<line fill="none" stroke="#000000" stroke-width="0.5" stroke-linecap="round" stroke-miterlimit="10" x1="78.912" y1="110.776" x2="78.912" y2="118.395"/>
		
			<line fill="none" stroke="#000000" stroke-width="0.5" stroke-linecap="round" stroke-miterlimit="10" x1="78.912" y1="119.179" x2="80.104" y2="116.234"/>
		
			<line fill="none" stroke="#000000" stroke-width="0.5" stroke-linecap="round" stroke-miterlimit="10" x1="78.912" y1="119.179" x2="77.664" y2="116.234"/>
	</g>
	<g>
		
			<line fill="none" stroke="#000000" stroke-width="0.5" stroke-linecap="round" stroke-miterlimit="10" x1="197.939" y1="365.679" x2="197.939" y2="358.06"/>
		
			<line fill="none" stroke="#000000" stroke-width="0.5" stroke-linecap="round" stroke-miterlimit="10" x1="197.939" y1="357.276" x2="196.746" y2="360.221"/>
		
			<line fill="none" stroke="#000000" stroke-width="0.5" stroke-linecap="round" stroke-miterlimit="10" x1="197.939" y1="357.276" x2="199.186" y2="360.221"/>
	</g>
	<g>
		
			<line fill="none" stroke="#000000" stroke-width="0.5" stroke-linecap="round" stroke-miterlimit="10" x1="132.743" y1="365.679" x2="132.743" y2="358.06"/>
		
			<line fill="none" stroke="#000000" stroke-width="0.5" stroke-linecap="round" stroke-miterlimit="10" x1="132.743" y1="357.276" x2="131.551" y2="360.221"/>
		
			<line fill="none" stroke="#000000" stroke-width="0.5" stroke-linecap="round" stroke-miterlimit="10" x1="132.743" y1="357.276" x2="133.991" y2="360.221"/>
	</g>
	<g>
		
			<line fill="none" stroke="#000000" stroke-width="0.5" stroke-linecap="round" stroke-miterlimit="10" x1="65.128" y1="365.679" x2="65.128" y2="358.06"/>
		
			<line fill="none" stroke="#000000" stroke-width="0.5" stroke-linecap="round" stroke-miterlimit="10" x1="65.128" y1="357.276" x2="63.936" y2="360.221"/>
		
			<line fill="none" stroke="#000000" stroke-width="0.5" stroke-linecap="round" stroke-miterlimit="10" x1="65.128" y1="357.276" x2="66.376" y2="360.221"/>
	</g>
	<polygon fill="#FFFFFF" stroke="#000000" stroke-miterlimit="10" points="117.928,104.829 117.928,104.829 37.4,104.829 
		37.4,71.277 117.928,71.277 	"/>
	<polygon fill="none" stroke="#000000" stroke-width="1.2304" stroke-miterlimit="10" points="127.929,217.147 127.929,217.147 
		27.4,217.147 27.4,126.057 127.929,126.057 	"/>
	<text transform="matrix(1 0 0 1 44.4 86.1726)"><tspan x="0" y="0" font-family="'Circe-Regular'" font-size="7">Demand Originator</tspan><tspan x="0" y="8" font-family="'Circe-Regular'" font-size="7">Servicer</tspan></text>
	<text transform="matrix(1 0 0 1 167.4581 162.617)" font-family="'Circe-Regular'" font-size="7">Product providers</text>
	<polygon fill="#FFFFFF" stroke="#000000" stroke-width="0.9527" stroke-miterlimit="10" points="228.711,102.053 228.711,102.053 
		159.808,102.053 159.808,74.053 228.711,74.053 	"/>
	<text transform="matrix(1 0 0 1 165.5398 86.4196)"><tspan x="0" y="0" font-family="'Circe-Regular'" font-size="7">Independent audit</tspan><tspan x="0" y="8" font-family="'Circe-Regular'" font-size="7">and escrow</tspan></text>
	<polygon fill="#FFFFFF" stroke="#000000" stroke-width="0.9527" stroke-miterlimit="10" points="229.07,278.185 229.07,278.185 
		160.168,278.185 160.168,250.185 229.07,250.185 	"/>
	<g>
		<path d="M235.152,372.329v42.849H28.181v-42.849H235.152 M236,371.481H27.333v44.544H236V371.481L236,371.481z"/>
	</g>
	<polygon fill="#FFFFFF" stroke="#000000" stroke-miterlimit="10" points="228.424,351.647 228.424,351.647 168.219,351.647 
		168.219,313.148 228.424,313.148 	"/>
	<polygon fill="#FFFFFF" stroke="#000000" stroke-miterlimit="10" points="162.298,351.647 162.298,351.647 102.093,351.647 
		102.093,313.148 162.298,313.148 	"/>
	<polygon fill="#FFFFFF" stroke="#000000" stroke-miterlimit="10" points="95.259,351.647 95.259,351.647 35.054,351.647 
		35.054,313.148 95.259,313.148 	"/>
	<polygon fill="#FFFFFF" stroke="#000000" stroke-miterlimit="10" points="228.424,407.732 228.424,407.732 167.948,407.732 
		167.948,379.732 228.424,379.732 	"/>
	<polygon opacity="0.35" points="163.279,409.732 163.279,409.732 102.802,409.732 102.802,381.732 163.279,381.732 	"/>
	<polygon fill="#FFFFFF" stroke="#000000" stroke-miterlimit="10" points="161.636,407.732 161.636,407.732 101.16,407.732 
		101.16,379.732 161.636,379.732 	"/>
	<polygon fill="#FFFFFF" stroke="#000000" stroke-miterlimit="10" points="95.53,407.732 95.53,407.732 35.054,407.732 
		35.054,379.732 95.53,379.732 	"/>
	<text transform="matrix(1 0 0 1 170.581 266.8848)" font-family="'Circe-Regular'" font-size="7">SPV, Bonds</text>
	<text transform="matrix(1 0 0 1 179.3103 327.1476)" font-family="'Circe-Regular'" font-size="7">Security</text>
	<rect x="35.423" y="179.372" fill="#FFFFFF" stroke="#000000" stroke-miterlimit="10" width="83.833" height="28.25"/>
	<rect x="35.17" y="144.594" fill="#FFFFFF" stroke="#000000" stroke-miterlimit="10" width="83.833" height="28.25"/>
	<text transform="matrix(1 0 0 1 44.4 160.5516)" font-family="'Circe-Regular'" font-size="7">Asset tokenizator</text>
	<text transform="matrix(1 0 0 1 44.3764 195.3294)" font-family="'Circe-Regular'" font-size="7">Smart Asset Escrow</text>
	<text transform="matrix(1 0 0 1 35.7333 140.3975)" font-family="'Circe-Regular'" font-size="7">Blockchain API</text>
	<text transform="matrix(1 0 0 1 179.3105 334.6691)"><tspan x="0" y="0" font-family="'Circe-Regular'" font-size="6">Public</tspan><tspan x="0" y="7.2" font-family="'Circe-Regular'" font-size="6">exchange</tspan></text>
	<text transform="matrix(1 0 0 1 110.1889 327.1476)" font-family="'Circe-Regular'" font-size="7">Coin</text>
	<text transform="matrix(1 0 0 1 110.1889 334.6691)"><tspan x="0" y="0" font-family="'Circe-Regular'" font-size="6">Crypto exchange</tspan><tspan x="0" y="7.2" font-family="'Circe-Regular'" font-size="6">public</tspan></text>
	<text transform="matrix(1 0 0 1 42.2648 327.1476)" font-family="'Circe-Regular'" font-size="7">Token</text>
	<text transform="matrix(1 0 0 1 177.3722 395.7321)" font-family="'Circe-Regular'" font-size="7">Fiat capital</text>
	<text transform="matrix(1 0 0 1 111.5022 391.7319)"><tspan x="0" y="0" font-family="'Circe-Regular'" font-size="7">Crypto-Fiat              </tspan><tspan x="0" y="8" font-family="'Circe-Regular'" font-size="7">derivatives   </tspan></text>
	<text transform="matrix(1 0 0 1 42.2647 395.7319)" font-family="'Circe-Regular'" font-size="7">Crypto capital</text>
	<text transform="matrix(1 0 0 1 42.2646 334.6691)"><tspan x="0" y="0" font-family="'Circe-Regular'" font-size="6">Crypto exchange</tspan><tspan x="0" y="7.2" font-family="'Circe-Regular'" font-size="6">private</tspan></text>
	<g>
		
			<line fill="none" stroke="#000000" stroke-width="0.5" stroke-linecap="round" stroke-miterlimit="10" x1="75.131" y1="180.139" x2="75.131" y2="172.519"/>
		
			<line fill="none" stroke="#000000" stroke-width="0.5" stroke-linecap="round" stroke-miterlimit="10" x1="75.131" y1="171.602" x2="73.939" y2="174.547"/>
		
			<line fill="none" stroke="#000000" stroke-width="0.5" stroke-linecap="round" stroke-miterlimit="10" x1="75.131" y1="171.602" x2="76.379" y2="174.547"/>
	</g>
	<g>
		
			<line fill="none" stroke="#000000" stroke-width="0.5" stroke-linecap="round" stroke-miterlimit="10" x1="78.912" y1="171.643" x2="78.912" y2="179.263"/>
		
			<line fill="none" stroke="#000000" stroke-width="0.5" stroke-linecap="round" stroke-miterlimit="10" x1="78.912" y1="180.047" x2="80.104" y2="177.102"/>
		
			<line fill="none" stroke="#000000" stroke-width="0.5" stroke-linecap="round" stroke-miterlimit="10" x1="78.912" y1="180.046" x2="77.664" y2="177.102"/>
	</g>
	<g>
		
			<line fill="none" stroke="#000000" stroke-width="0.5" stroke-linecap="round" stroke-miterlimit="10" x1="94.265" y1="391.842" x2="101.885" y2="391.842"/>
		
			<line fill="none" stroke="#000000" stroke-width="0.5" stroke-linecap="round" stroke-miterlimit="10" x1="102.802" y1="391.842" x2="99.857" y2="390.65"/>
		
			<line fill="none" stroke="#000000" stroke-width="0.5" stroke-linecap="round" stroke-miterlimit="10" x1="102.802" y1="391.842" x2="99.857" y2="393.089"/>
	</g>
	<g>
		
			<line fill="none" stroke="#000000" stroke-width="0.5" stroke-linecap="round" stroke-miterlimit="10" x1="102.761" y1="395.622" x2="95.141" y2="395.622"/>
		
			<line fill="none" stroke="#000000" stroke-width="0.5" stroke-linecap="round" stroke-miterlimit="10" x1="94.358" y1="395.622" x2="97.303" y2="396.814"/>
		
			<line fill="none" stroke="#000000" stroke-width="0.5" stroke-linecap="round" stroke-miterlimit="10" x1="94.358" y1="395.622" x2="97.302" y2="394.375"/>
	</g>
	<g>
		
			<line fill="none" stroke="#000000" stroke-width="0.5" stroke-linecap="round" stroke-miterlimit="10" x1="160.393" y1="391.842" x2="168.014" y2="391.842"/>
		
			<line fill="none" stroke="#000000" stroke-width="0.5" stroke-linecap="round" stroke-miterlimit="10" x1="168.931" y1="391.842" x2="165.986" y2="390.65"/>
		
			<line fill="none" stroke="#000000" stroke-width="0.5" stroke-linecap="round" stroke-miterlimit="10" x1="168.93" y1="391.842" x2="165.986" y2="393.089"/>
	</g>
	<g>
		
			<line fill="none" stroke="#000000" stroke-width="0.5" stroke-linecap="round" stroke-miterlimit="10" x1="168.889" y1="395.622" x2="161.27" y2="395.622"/>
		
			<line fill="none" stroke="#000000" stroke-width="0.5" stroke-linecap="round" stroke-miterlimit="10" x1="160.486" y1="395.622" x2="163.431" y2="396.814"/>
		
			<line fill="none" stroke="#000000" stroke-width="0.5" stroke-linecap="round" stroke-miterlimit="10" x1="160.486" y1="395.622" x2="163.431" y2="394.375"/>
	</g>
	
		<line opacity="0.5" fill="none" stroke="#000000" stroke-width="0.25" stroke-linecap="square" stroke-miterlimit="10" stroke-dasharray="2.201,2.2006" x1="4" y1="114.679" x2="235.499" y2="114.679"/>
	
		<line opacity="0.5" fill="none" stroke="#000000" stroke-width="0.25" stroke-linecap="square" stroke-miterlimit="10" stroke-dasharray="2.201,2.2006" x1="4" y1="298.749" x2="235.499" y2="298.749"/>
</g>
</svg>
