<?xml version="1.0" encoding="utf-8"?>
<!-- Generator: Adobe Illustrator 17.0.0, SVG Export Plug-In . SVG Version: 6.00 Build 0)  -->
<!DOCTYPE svg PUBLIC "-//W3C//DTD SVG 1.1//EN" "http://www.w3.org/Graphics/SVG/1.1/DTD/svg11.dtd">
<svg version="1.1" id="Слой_1" xmlns="http://www.w3.org/2000/svg" xmlns:xlink="http://www.w3.org/1999/xlink" x="0px" y="0px"
	 width="232.667px" height="436px" viewBox="0 0 232.667 436" enable-background="new 0 0 232.667 436" xml:space="preserve">
<g>
	
		<line fill="none" stroke="#000000" stroke-width="0.5" stroke-linecap="round" stroke-miterlimit="10" x1="40.788" y1="52.618" x2="40.788" y2="60.238"/>
	
		<line fill="none" stroke="#000000" stroke-width="0.5" stroke-linecap="round" stroke-miterlimit="10" x1="40.788" y1="61.022" x2="41.981" y2="58.077"/>
	
		<line fill="none" stroke="#000000" stroke-width="0.5" stroke-linecap="round" stroke-miterlimit="10" x1="40.788" y1="61.021" x2="39.541" y2="58.077"/>
</g>
<g>
	
		<line fill="none" stroke="#000000" stroke-width="0.5251" stroke-linecap="round" stroke-miterlimit="10" stroke-dasharray="1.0502,1.0502" x1="97.066" y1="31.159" x2="88.662" y2="31.159"/>
	
		<line fill="none" stroke="#000000" stroke-width="0.5" stroke-linecap="round" stroke-miterlimit="10" x1="88.663" y1="31.159" x2="91.608" y2="32.351"/>
	
		<line fill="none" stroke="#000000" stroke-width="0.5" stroke-linecap="round" stroke-miterlimit="10" x1="88.663" y1="31.159" x2="91.607" y2="29.911"/>
</g>
<g>
	
		<line fill="none" stroke="#000000" stroke-width="0.5" stroke-linecap="round" stroke-miterlimit="10" x1="96.674" y1="82.012" x2="89.054" y2="82.012"/>
	
		<line fill="none" stroke="#000000" stroke-width="0.5" stroke-linecap="round" stroke-miterlimit="10" x1="88.271" y1="82.012" x2="91.216" y2="83.204"/>
	
		<line fill="none" stroke="#000000" stroke-width="0.5" stroke-linecap="round" stroke-miterlimit="10" x1="88.271" y1="82.012" x2="91.215" y2="80.764"/>
</g>
<g>
	
		<line fill="none" stroke="#000000" stroke-width="0.5" stroke-linecap="round" stroke-miterlimit="10" x1="81.867" y1="205.567" x2="89.487" y2="205.567"/>
	
		<line fill="none" stroke="#000000" stroke-width="0.5" stroke-linecap="round" stroke-miterlimit="10" x1="90.271" y1="205.567" x2="87.326" y2="204.374"/>
	
		<line fill="none" stroke="#000000" stroke-width="0.5" stroke-linecap="round" stroke-miterlimit="10" x1="90.27" y1="205.567" x2="87.326" y2="206.814"/>
</g>
<g>
	
		<line fill="none" stroke="#000000" stroke-width="0.5" stroke-linecap="round" stroke-miterlimit="10" x1="139.798" y1="205.567" x2="147.418" y2="205.567"/>
	
		<line fill="none" stroke="#000000" stroke-width="0.5" stroke-linecap="round" stroke-miterlimit="10" x1="148.202" y1="205.567" x2="145.257" y2="204.374"/>
	
		<line fill="none" stroke="#000000" stroke-width="0.5" stroke-linecap="round" stroke-miterlimit="10" x1="148.201" y1="205.567" x2="145.257" y2="206.814"/>
</g>
<polygon fill="#FFFFFF" stroke="#000000" stroke-miterlimit="10" points="80.997,98.761 80.997,98.761 0.469,98.761 0.469,65.208 
	80.997,65.208 "/>
<polygon fill="#FFFFFF" stroke="#000000" stroke-miterlimit="10" points="182.818,98.788 182.818,98.788 102.291,98.788 
	102.291,65.236 182.818,65.236 "/>
<polygon opacity="0.35" fill="#65FCBC" points="232.667,136.722 232.667,136.722 0.469,136.722 0.469,122.696 232.667,122.696 "/>
<polygon fill="#FFFFFF" stroke="#000000" stroke-miterlimit="10" points="80.997,49.127 80.997,49.127 0.469,49.127 0.469,15.575 
	80.997,15.575 "/>
<polygon fill="#FFFFFF" stroke="#000000" stroke-width="1.1155" stroke-miterlimit="10" points="232.469,314.485 232.469,314.485 
	0.469,314.485 0.469,122.696 232.469,122.696 "/>
<text transform="matrix(1 0 0 1 10.8022 84.7703)" font-family="'Circe-Regular'" font-size="7">Product Formula</text>
<polygon fill="#FFFFFF" stroke="#000000" stroke-miterlimit="10" points="78.333,271.15 78.333,271.15 12.336,271.15 
	12.336,161.477 78.333,161.477 "/>
<g>
	<rect x="151.319" y="278.157" fill="#FFFFFF" width="65.126" height="16.008"/>
	<g>
		<path d="M216.01,278.593v15.136h-64.254v-15.136H216.01 M216.881,277.722h-65.997v16.879h65.997V277.722L216.881,277.722z"/>
	</g>
</g>
<g>
	<rect x="151.384" y="338.851" fill="#FFFFFF" width="80.585" height="35.037"/>
	<g>
		<path d="M231.469,339.351v34.037h-79.585v-34.037H231.469 M232.469,338.351h-81.585v36.037h81.585V338.351L232.469,338.351z"/>
	</g>
</g>
<g>
	<rect x="12.771" y="278.157" fill="#FFFFFF" width="65.126" height="16.008"/>
	<g>
		<path d="M77.462,278.593v15.136H13.208v-15.136H77.462 M78.333,277.722H12.336v16.879h65.997V277.722L78.333,277.722z"/>
	</g>
</g>
<text transform="matrix(1 0 0 1 10.802 34.1831)" font-family="'Circe-Regular'" font-size="7">Product owner</text>
<text transform="matrix(1 0 0 1 102.2903 28.9114)"><tspan x="0" y="0" font-family="'Circe-Regular'" font-size="7">Asset</tspan><tspan x="0" y="9" font-family="'Circe-Regular'" font-size="7">scheme #1</tspan></text>
<polygon fill="#FFFFFF" stroke="#000000" stroke-width="0.6311" stroke-miterlimit="10" points="136.805,219.127 136.805,219.127 
	94.442,219.127 94.442,193.723 136.805,193.723 "/>
<text transform="matrix(1 0 0 1 112.6237 79.3444)"><tspan x="0" y="0" font-family="'Circe-Regular'" font-size="7">BankEx product </tspan><tspan x="0" y="8" font-family="'Circe-Regular'" font-size="7">escrow</tspan></text>
<g>
	
		<line fill="none" stroke="#000000" stroke-width="0.5" stroke-linecap="round" stroke-miterlimit="10" x1="40.788" y1="102.441" x2="40.788" y2="156.193"/>
	
		<line fill="none" stroke="#000000" stroke-width="0.5" stroke-linecap="round" stroke-miterlimit="10" x1="40.788" y1="156.976" x2="41.981" y2="154.031"/>
	
		<line fill="none" stroke="#000000" stroke-width="0.5" stroke-linecap="round" stroke-miterlimit="10" x1="40.788" y1="156.976" x2="39.541" y2="154.032"/>
</g>
<g>
	
		<line fill="none" stroke="#000000" stroke-width="0.5" stroke-linecap="round" stroke-miterlimit="10" x1="182.846" y1="301.812" x2="182.846" y2="326.052"/>
	
		<line fill="none" stroke="#000000" stroke-width="0.5" stroke-linecap="round" stroke-miterlimit="10" x1="182.846" y1="326.836" x2="184.038" y2="323.891"/>
	
		<line fill="none" stroke="#000000" stroke-width="0.5" stroke-linecap="round" stroke-miterlimit="10" x1="182.846" y1="326.836" x2="181.599" y2="323.891"/>
</g>
<rect x="20.667" y="172.485" fill="none" width="50" height="70.667"/>
<text transform="matrix(1 0 0 1 20.667 177.3848)"><tspan x="0" y="0" font-family="'Circe-Bold'" font-size="7">Product  </tspan><tspan x="0" y="8.4" font-family="'Circe-Bold'" font-size="7">tokenization </tspan><tspan x="0" y="16.8" font-family="'Circe-Bold'" font-size="7">formula  </tspan><tspan x="0" y="25.2" font-family="'Circe-Regular'" font-size="7">(formula 1)</tspan><tspan x="0" y="36.2" font-family="'Circe-Regular'" font-size="7">the formula uses </tspan><tspan x="0" y="44.2" font-family="'Circe-Regular'" font-size="7">initial data to </tspan><tspan x="0" y="52.2" font-family="'Circe-Regular'" font-size="7">output an </tspan><tspan x="0" y="60.2" font-family="'Circe-Regular'" font-size="7">ethereum token</tspan></text>
<polygon fill="#FFFFFF" stroke="#000000" stroke-miterlimit="10" points="216.881,271.15 216.881,271.15 150.884,271.15 
	150.884,161.477 216.881,161.477 "/>
<rect x="159.215" y="172.485" fill="none" width="51.119" height="63"/>
<text transform="matrix(1 0 0 1 159.2148 177.3848)"><tspan x="0" y="0" font-family="'Circe-Bold'" font-size="7">Smart-Asset </tspan><tspan x="0" y="8.4" font-family="'Circe-Bold'" font-size="7">formula </tspan><tspan x="0" y="16.8" font-family="'Circe-Regular'" font-size="7">(formula 2)</tspan><tspan x="0" y="27.8" font-family="'Circe-Regular'" font-size="7">contract </tspan><tspan x="0" y="35.8" font-family="'Circe-Regular'" font-size="7">expertise and </tspan><tspan x="0" y="43.8" font-family="'Circe-Regular'" font-size="7">escrow of </tspan><tspan x="0" y="51.8" font-family="'Circe-Regular'" font-size="7">BankEx</tspan></text>
<rect x="156.706" y="235.985" fill="#FFFFFF" stroke="#000000" stroke-width="1.0553" stroke-miterlimit="10" width="55.441" height="28.5"/>
<rect x="159.215" y="239.222" fill="none" width="47.755" height="22.999"/>
<text transform="matrix(1 0 0 1 159.2148 244.1222)"><tspan x="0" y="0" font-family="'Circe-Regular'" font-size="7">BankEx </tspan><tspan x="0" y="8" font-family="'Circe-Regular'" font-size="7">contract </tspan><tspan x="0" y="16" font-family="'Circe-Regular'" font-size="7">Escrow</tspan></text>
<rect x="99.68" y="199.386" fill="none" width="34.32" height="31.333"/>
<text transform="matrix(1 0 0 1 99.6793 204.2863)"><tspan x="0" y="0" font-family="'Circe-Regular'" font-size="7">&quot;Ethereum </tspan><tspan x="0" y="8.4" font-family="'Circe-Regular'" font-size="7">token&quot;</tspan></text>
<rect x="99.818" y="132.887" fill="none" width="41.182" height="7.671"/>
<text transform="matrix(1 0 0 1 99.8184 137.7865)" font-family="'Circe-Regular'" font-size="7">Tokenizator</text>
<rect x="75.857" y="143.815" fill="none" width="86.124" height="9.003"/>
<text transform="matrix(1 0 0 1 81.7082 148.7155)" font-family="'Circe-Regular'" font-size="7">Ethereum smart contract</text>
<rect x="12.336" y="283.036" fill="none" width="65.997" height="8.455"/>
<text transform="matrix(1 0 0 1 25.0026 287.936)" font-family="'Circe-Regular'" font-size="7">Ethereum gas</text>
<rect x="150.884" y="283.036" fill="none" width="66.219" height="8.455"/>
<text transform="matrix(1 0 0 1 167.1661 287.936)" font-family="'Circe-Regular'" font-size="7">BankEx gas</text>
<text transform="matrix(1 0 0 1 160.9818 355.4919)" font-family="'Circe-Regular'" font-size="7">Smart asset</text>
<text transform="matrix(1 0 0 1 160.9817 363.6718)" font-family="'Circe-Regular'" font-size="7">Product token</text>
<rect x="151.419" y="378.729" fill="none" width="76" height="40"/>
<text transform="matrix(1 0 0 1 151.4192 383.6289)"><tspan x="0" y="0" font-family="'Circe-Regular'" font-size="7">Token characteristics:</tspan><tspan x="0" y="8" font-family="'Circe-Regular'" font-size="7">- name</tspan><tspan x="0" y="16" font-family="'Circe-Regular'" font-size="7">- quantity</tspan><tspan x="0" y="24" font-family="'Circe-Regular'" font-size="7">- value</tspan><tspan x="0" y="32" font-family="'Circe-Regular'" font-size="7">- smth else</tspan></text>
<rect x="24.666" y="350.722" fill="none" width="98.98" height="50.25"/>
<text transform="matrix(1 0 0 1 34.5015 355.6221)"><tspan x="0" y="0" font-family="'Circe-Bold'" font-size="7">Product token = Smart Asset:</tspan><tspan x="-7.385" y="8" font-family="'Circe-Regular'" font-size="7">includes information relevant to </tspan><tspan x="-2.387" y="16" font-family="'Circe-Regular'" font-size="7">each product like: name of the </tspan><tspan x="10.339" y="24" font-family="'Circe-Regular'" font-size="7">assset, quantity, location...</tspan><tspan x="-4.298" y="32" font-family="'Circe-Regular'" font-size="7">for example: p2pCoin (amount, </tspan><tspan x="2.905" y="40" font-family="'Circe-Regular'" font-size="7">loan duration, interest rate...)</tspan></text>
<polyline fill="none" stroke="#000000" stroke-width="0.8201" stroke-miterlimit="10" points="127.973,339.055 137.14,339.055 
	137.14,413.062 127.973,413.062 "/>
<polyline fill="none" stroke="#000000" stroke-width="0.8201" stroke-miterlimit="10" points="22.043,413.062 12.876,413.062 
	12.876,339.055 22.043,339.055 "/>
<g>
	
		<line fill="none" stroke="#000000" stroke-width="0.5" stroke-linecap="round" stroke-miterlimit="10" x1="143.791" y1="354.038" x2="130.396" y2="354.038"/>
	<path fill="none" stroke="#000000" stroke-width="0.5" stroke-linecap="round" stroke-miterlimit="10" d="M132.557,352.79"/>
	<path fill="none" stroke="#000000" stroke-width="0.5" stroke-linecap="round" stroke-miterlimit="10" d="M129.612,354.038"/>
</g>
</svg>
