<?xml version="1.0" encoding="utf-8"?>
<!-- Generator: Adobe Illustrator 17.0.0, SVG Export Plug-In . SVG Version: 6.00 Build 0)  -->
<!DOCTYPE svg PUBLIC "-//W3C//DTD SVG 1.1//EN" "http://www.w3.org/Graphics/SVG/1.1/DTD/svg11.dtd">
<svg version="1.1" id="Слой_1" xmlns="http://www.w3.org/2000/svg" xmlns:xlink="http://www.w3.org/1999/xlink" x="0px" y="0px"
	 width="253.091px" height="420.841px" viewBox="0 0 253.091 420.841" enable-background="new 0 0 253.091 420.841"
	 xml:space="preserve">
<polygon fill="#FFFFFF" stroke="#000201" stroke-width="1.0641" stroke-miterlimit="10" points="172.484,43.67 172.484,43.67 
	81.999,43.67 81.999,5.681 172.484,5.681 "/>
<text transform="matrix(1 0 0 1 98.2005 17.9987)" font-family="'Circe-Regular'" font-size="7">Asset</text>
<text transform="matrix(1 0 0 1 98.2 26.7553)"><tspan x="0" y="0" font-family="'Circe-Regular'" font-size="7">Goods and Services</tspan><tspan x="0" y="8.4" font-family="'Circe-Regular'" font-size="7">for Tokenisation</tspan></text>
<g>
	
		<line fill="none" stroke="#000000" stroke-width="0.5" stroke-linecap="round" stroke-miterlimit="10" x1="127.519" y1="49.151" x2="127.519" y2="56.771"/>
	
		<line fill="none" stroke="#000000" stroke-width="0.5" stroke-linecap="round" stroke-miterlimit="10" x1="127.519" y1="57.555" x2="128.711" y2="54.61"/>
	
		<line fill="none" stroke="#000000" stroke-width="0.5" stroke-linecap="round" stroke-miterlimit="10" x1="127.519" y1="57.554" x2="126.272" y2="54.61"/>
</g>
<g>
	
		<line fill="none" stroke="#000000" stroke-width="0.5" stroke-linecap="round" stroke-miterlimit="10" x1="33.428" y1="391.38" x2="33.428" y2="333.096"/>
	
		<line fill="none" stroke="#000000" stroke-width="0.5" stroke-linecap="round" stroke-miterlimit="10" x1="33.428" y1="332.312" x2="32.236" y2="335.257"/>
	
		<line fill="none" stroke="#000000" stroke-width="0.5" stroke-linecap="round" stroke-miterlimit="10" x1="33.428" y1="332.312" x2="34.676" y2="335.257"/>
</g>
<g>
	
		<line fill="none" stroke="#000000" stroke-width="0.5" stroke-linecap="round" stroke-miterlimit="10" x1="33.428" y1="391.353" x2="77.978" y2="391.353"/>
	
		<line fill="none" stroke="#000000" stroke-width="0.5" stroke-linecap="round" stroke-miterlimit="10" x1="78.762" y1="391.353" x2="75.816" y2="390.161"/>
	
		<line fill="none" stroke="#000000" stroke-width="0.5" stroke-linecap="round" stroke-miterlimit="10" x1="78.761" y1="391.353" x2="75.817" y2="392.6"/>
</g>
<g>
	
		<line fill="none" stroke="#000000" stroke-width="0.5" stroke-linecap="round" stroke-miterlimit="10" x1="219.224" y1="79.953" x2="183.822" y2="79.953"/>
	
		<line fill="none" stroke="#000000" stroke-width="0.5" stroke-linecap="round" stroke-miterlimit="10" x1="183.038" y1="79.953" x2="185.983" y2="81.145"/>
	
		<line fill="none" stroke="#000000" stroke-width="0.5" stroke-linecap="round" stroke-miterlimit="10" x1="183.038" y1="79.953" x2="185.983" y2="78.705"/>
</g>
<g>
	
		<line fill="none" stroke="#000000" stroke-width="0.5" stroke-linecap="round" stroke-miterlimit="10" x1="179.66" y1="391.353" x2="219.799" y2="391.353"/>
	<path fill="none" stroke="#000000" stroke-width="0.5" stroke-linecap="round" stroke-miterlimit="10" d="M188.064,391.353"/>
	<path fill="none" stroke="#000000" stroke-width="0.5" stroke-linecap="round" stroke-miterlimit="10" d="M188.063,391.353"/>
</g>
<g>
	
		<line fill="none" stroke="#000000" stroke-width="0.5" stroke-linecap="round" stroke-miterlimit="10" x1="127.476" y1="188.437" x2="127.476" y2="106.69"/>
	
		<line fill="none" stroke="#000000" stroke-width="0.5" stroke-linecap="round" stroke-miterlimit="10" x1="127.476" y1="105.906" x2="126.284" y2="108.851"/>
	
		<line fill="none" stroke="#000000" stroke-width="0.5" stroke-linecap="round" stroke-miterlimit="10" x1="127.476" y1="105.906" x2="128.724" y2="108.851"/>
	
		<line fill="none" stroke="#000000" stroke-width="0.5" stroke-linecap="round" stroke-miterlimit="10" x1="127.531" y1="188.909" x2="128.724" y2="185.964"/>
	
		<line fill="none" stroke="#000000" stroke-width="0.5" stroke-linecap="round" stroke-miterlimit="10" x1="127.531" y1="188.909" x2="126.284" y2="185.965"/>
</g>
<g>
	
		<line fill="none" stroke="#000000" stroke-width="0.5" stroke-linecap="round" stroke-miterlimit="10" x1="33.428" y1="280.893" x2="33.428" y2="218.147"/>
	
		<line fill="none" stroke="#000000" stroke-width="0.5" stroke-linecap="round" stroke-miterlimit="10" x1="33.428" y1="217.363" x2="32.236" y2="220.309"/>
	
		<line fill="none" stroke="#000000" stroke-width="0.5" stroke-linecap="round" stroke-miterlimit="10" x1="33.428" y1="217.364" x2="34.676" y2="220.308"/>
	
		<line fill="none" stroke="#000000" stroke-width="0.5" stroke-linecap="round" stroke-miterlimit="10" x1="33.483" y1="281.365" x2="34.676" y2="278.42"/>
	
		<line fill="none" stroke="#000000" stroke-width="0.5" stroke-linecap="round" stroke-miterlimit="10" x1="33.483" y1="281.365" x2="32.236" y2="278.421"/>
</g>
<g>
	
		<line fill="none" stroke="#000000" stroke-width="0.5" stroke-linecap="round" stroke-miterlimit="10" x1="33.428" y1="166.489" x2="33.428" y2="79.925"/>
	
		<line fill="none" stroke="#000000" stroke-width="0.5" stroke-linecap="round" stroke-miterlimit="10" x1="33.483" y1="166.961" x2="34.676" y2="164.016"/>
	
		<line fill="none" stroke="#000000" stroke-width="0.5" stroke-linecap="round" stroke-miterlimit="10" x1="33.483" y1="166.961" x2="32.236" y2="164.016"/>
</g>
<g>
	
		<line fill="none" stroke="#000000" stroke-width="0.5" stroke-linecap="round" stroke-miterlimit="10" x1="127.284" y1="369.786" x2="127.284" y2="283.038"/>
	
		<line fill="none" stroke="#000000" stroke-width="0.5" stroke-linecap="round" stroke-miterlimit="10" x1="127.284" y1="282.255" x2="126.092" y2="285.2"/>
	
		<line fill="none" stroke="#000000" stroke-width="0.5" stroke-linecap="round" stroke-miterlimit="10" x1="127.284" y1="282.255" x2="128.532" y2="285.199"/>
	
		<line fill="none" stroke="#000000" stroke-width="0.5" stroke-linecap="round" stroke-miterlimit="10" x1="127.34" y1="370.258" x2="128.532" y2="367.313"/>
	
		<line fill="none" stroke="#000000" stroke-width="0.5" stroke-linecap="round" stroke-miterlimit="10" x1="127.34" y1="370.258" x2="126.092" y2="367.313"/>
</g>
<polygon fill="#FFFFFF" stroke="#000201" stroke-miterlimit="10" points="172.484,96.702 172.484,96.702 81.999,96.702 
	81.999,63.149 172.484,63.149 "/>
<text transform="matrix(1 0 0 1 92.6515 81.9251)"><tspan x="0" y="0" font-family="'Circe-Regular'" font-size="7">Smart Assset Creatio</tspan><tspan x="62.894" y="0" font-family="'Circe-Regular'" font-size="7">n</tspan></text>
<polygon fill="#FFFFFF" stroke="#000201" stroke-miterlimit="10" points="66.248,207.337 66.248,207.337 0,207.337 0,173.784 
	66.248,173.784 "/>
<polygon fill="#FFFFFF" stroke="#000201" stroke-miterlimit="10" points="66.248,146.027 66.248,146.027 0,146.027 0,112.474 
	66.248,112.474 "/>
<polygon fill="#FFFFFF" stroke="#000201" stroke-miterlimit="10" points="66.248,266.594 66.248,266.594 0,266.594 0,233.041 
	66.248,233.041 "/>
<polygon fill="#FFFFFF" stroke="#000201" stroke-miterlimit="10" points="159.684,344.05 159.684,344.05 93.436,344.05 
	93.436,310.497 159.684,310.497 "/>
<polygon fill="#FFFFFF" stroke="#000201" stroke-miterlimit="10" points="161.251,162.803 161.251,162.803 95.004,162.803 
	95.004,129.25 161.251,129.25 "/>
<polygon fill="#FFFFFF" stroke="#000201" stroke-miterlimit="10" points="67.038,381.339 67.038,381.339 0.79,381.339 0.79,347.786 
	67.038,347.786 "/>
<text transform="matrix(1 0 0 1 10.3331 188.0257)"><tspan x="0" y="0" font-family="'Circe-Regular'" font-size="7">Smart Assset </tspan><tspan x="0" y="9" font-family="'Circe-Regular'" font-size="7">owner wallets</tspan></text>
<polygon fill="#FFFFFF" stroke="#000201" stroke-miterlimit="10" points="66.248,322.523 66.248,322.523 0,322.523 0,288.971 
	66.248,288.971 "/>
<polygon fill="#FFFFFF" stroke="#000201" stroke-width="1.1459" stroke-miterlimit="10" points="172.484,406.937 172.484,406.937 
	85.5,406.937 85.5,373.384 172.484,373.384 "/>
<text transform="matrix(1 0 0 1 10.3331 303.2119)"><tspan x="0" y="0" font-family="'Circe-Regular'" font-size="7">Bankex Smart </tspan><tspan x="0" y="9" font-family="'Circe-Regular'" font-size="7">Asset Exchange</tspan></text>
<polygon fill="#FFFFFF" stroke="#000201" stroke-miterlimit="10" points="160.697,239.473 160.697,239.473 93.304,239.473 
	93.304,195.134 160.697,195.134 "/>
<polygon fill="#FFFFFF" stroke="#000201" stroke-width="0.8768" stroke-miterlimit="10" points="160.697,273.563 160.697,273.563 
	93.304,273.563 93.304,239.473 160.697,239.473 "/>
<text transform="matrix(1 0 0 1 103.19 211.9276)"><tspan x="0" y="0" font-family="'Circe-Regular'" font-size="7">Bankex </tspan><tspan x="0" y="9" font-family="'Circe-Regular'" font-size="7">Foundation</tspan><tspan x="0" y="18" font-family="'Circe-Regular'" font-size="7">Community</tspan></text>
<text transform="matrix(1 0 0 1 9.8743 251.8564)" font-family="'Circe-Regular'" font-size="7">Smart assets</text>
<text transform="matrix(1 0 0 1 10.3328 366.6025)" font-family="'Circe-Regular'" font-size="7">BKX tokens</text>
<text transform="matrix(1 0 0 1 103.731 329.3134)" font-family="'Circe-Regular'" font-size="7">BKX ETH</text>
<text transform="matrix(1 0 0 1 9.7125 131.2897)" font-family="'Circe-Regular'" font-size="7">Smart assets</text>
<text transform="matrix(1 0 0 1 103.9222 144.0203)"><tspan x="0" y="0" font-family="'Circe-Regular'" font-size="7">Smart Assset </tspan><tspan x="0" y="9" font-family="'Circe-Regular'" font-size="7">in development</tspan></text>
<rect x="94.092" y="387.225" fill="none" width="69.126" height="7.985"/>
<text transform="matrix(1 0 0 1 94.0915 392.1249)" font-family="'Circe-Regular'" font-size="7">Crypto-Fiat Exchanges</text>
<rect x="101.645" y="250.791" fill="none" width="46.749" height="16.122"/>
<text transform="matrix(1 0 0 1 101.6445 255.6912)"><tspan x="0" y="0" font-family="'Circe-Regular'" font-size="7">Independant</tspan><tspan x="0" y="9" font-family="'Circe-Regular'" font-size="7">developers</tspan></text>
<g>
	
		<line fill="none" stroke="#000000" stroke-width="0.482" stroke-linecap="round" stroke-miterlimit="10" x1="219.799" y1="391.353" x2="219.799" y2="79.925"/>
</g>
<path fill="none" stroke="#000000" stroke-width="0.5" stroke-linecap="round" stroke-miterlimit="10" d="M75.912,79.925
	c0,0-29.292,0-32.918,0s-9.566,0-9.566,0s5.94,0,9.566,0S75.912,79.925,75.912,79.925z"/>
<polygon fill="#FFFFFF" stroke="#000201" stroke-miterlimit="10" points="250.07,252.415 250.07,252.415 183.822,252.415 
	183.822,218.863 250.07,218.863 "/>
<text transform="matrix(1 0 0 1 195.6429 237.6784)" font-family="'Circe-Regular'" font-size="7">BKX ETH</text>
<rect id="_x3C_Фрагмент_x3E__4_" x="0.893" y="-15.437" fill="none" width="241" height="443"/>
</svg>
