<?xml version="1.0" encoding="utf-8"?>
<!-- Generator: Adobe Illustrator 17.0.0, SVG Export Plug-In . SVG Version: 6.00 Build 0)  -->
<!DOCTYPE svg PUBLIC "-//W3C//DTD SVG 1.1//EN" "http://www.w3.org/Graphics/SVG/1.1/DTD/svg11.dtd">
<svg version="1.1" id="Слой_1" xmlns="http://www.w3.org/2000/svg" xmlns:xlink="http://www.w3.org/1999/xlink" x="0px" y="0px"
	 width="208.658px" height="248.462px" viewBox="0 0 208.658 248.462" enable-background="new 0 0 208.658 248.462"
	 xml:space="preserve">
<polygon fill="#FFFFFF" stroke="#000000" stroke-width="0.8343" stroke-miterlimit="10" points="208.658,86.429 208.658,86.429 
	152.609,86.429 152.609,52.876 208.658,52.876 "/>
<polygon fill="#FFFFFF" stroke="#000000" stroke-width="0.8343" stroke-miterlimit="10" points="208.658,207.568 208.658,207.568 
	152.609,207.568 152.609,174.015 208.658,174.015 "/>
<polygon fill="#FFFFFF" stroke="#000000" stroke-miterlimit="10" points="130.141,215.429 130.141,215.429 0,215.429 0,171.142 
	130.141,171.142 "/>
<polygon fill="#FFFFFF" stroke="#000000" stroke-miterlimit="10" points="130.141,93.396 130.141,93.396 0.939,93.396 0.939,48.261 
	130.141,48.261 "/>
<polygon fill="#FFFFFF" stroke="#000000" stroke-miterlimit="10" points="130.141,152.277 130.141,152.277 0.939,152.277 
	0.939,107.141 130.141,107.141 "/>
<text transform="matrix(1 0 0 1 14.2067 72.8284)" font-family="'Circe-Regular'" font-size="7">BankEx Foundation</text>
<text transform="matrix(1 0 0 1 158.9545 192.6501)" font-family="'Circe-Regular'" font-size="7">Product ITO</text>
<text transform="matrix(1 0 0 1 162.2885 72.6604)" font-family="'Circe-Regular'" font-size="7">Market</text>
<g>
	
		<line fill="none" stroke="#000000" stroke-width="0.482" stroke-linecap="round" stroke-miterlimit="10" x1="65.567" y1="96.28" x2="65.567" y2="103.626"/>
	
		<line fill="none" stroke="#000000" stroke-width="0.482" stroke-linecap="round" stroke-miterlimit="10" x1="65.567" y1="104.381" x2="66.716" y2="101.542"/>
	
		<line fill="none" stroke="#000000" stroke-width="0.482" stroke-linecap="round" stroke-miterlimit="10" x1="65.567" y1="104.381" x2="64.364" y2="101.542"/>
</g>
<g>
	
		<line fill="none" stroke="#000000" stroke-width="0.482" stroke-linecap="round" stroke-miterlimit="10" x1="182.525" y1="95.28" x2="182.525" y2="164.629"/>
	
		<line fill="none" stroke="#000000" stroke-width="0.482" stroke-linecap="round" stroke-miterlimit="10" x1="182.525" y1="165.385" x2="183.675" y2="162.546"/>
	
		<line fill="none" stroke="#000000" stroke-width="0.482" stroke-linecap="round" stroke-miterlimit="10" x1="182.525" y1="165.385" x2="181.323" y2="162.546"/>
</g>
<g>
	
		<line fill="none" stroke="#000000" stroke-width="0.482" stroke-linecap="round" stroke-miterlimit="10" x1="136.172" y1="70.802" x2="143.518" y2="70.802"/>
	
		<line fill="none" stroke="#000000" stroke-width="0.482" stroke-linecap="round" stroke-miterlimit="10" x1="144.273" y1="70.802" x2="141.434" y2="69.652"/>
	
		<line fill="none" stroke="#000000" stroke-width="0.482" stroke-linecap="round" stroke-miterlimit="10" x1="144.273" y1="70.802" x2="141.435" y2="72.004"/>
</g>
<g>
	
		<line fill="none" stroke="#000000" stroke-width="0.482" stroke-linecap="round" stroke-miterlimit="10" x1="136.172" y1="190.791" x2="143.518" y2="190.791"/>
	
		<line fill="none" stroke="#000000" stroke-width="0.482" stroke-linecap="round" stroke-miterlimit="10" x1="144.273" y1="190.791" x2="141.434" y2="189.642"/>
	
		<line fill="none" stroke="#000000" stroke-width="0.482" stroke-linecap="round" stroke-miterlimit="10" x1="144.273" y1="190.791" x2="141.435" y2="191.994"/>
</g>
<g>
	
		<line fill="none" stroke="#000000" stroke-width="0.482" stroke-linecap="round" stroke-miterlimit="10" x1="65.567" y1="155.672" x2="65.567" y2="163.017"/>
	
		<line fill="none" stroke="#000000" stroke-width="0.482" stroke-linecap="round" stroke-miterlimit="10" x1="65.567" y1="163.773" x2="66.716" y2="160.934"/>
	
		<line fill="none" stroke="#000000" stroke-width="0.482" stroke-linecap="round" stroke-miterlimit="10" x1="65.567" y1="163.772" x2="64.364" y2="160.934"/>
</g>
<g>
	
		<line fill="none" stroke="#000000" stroke-width="0.482" stroke-linecap="round" stroke-miterlimit="10" stroke-dasharray="1,1" x1="182.499" y1="211.756" x2="182.499" y2="219.101"/>
	
		<line fill="none" stroke="#000000" stroke-width="0.482" stroke-linecap="round" stroke-miterlimit="10" x1="182.499" y1="219.857" x2="183.648" y2="217.018"/>
	
		<line fill="none" stroke="#000000" stroke-width="0.482" stroke-linecap="round" stroke-miterlimit="10" x1="182.499" y1="219.857" x2="181.296" y2="217.018"/>
</g>
<text transform="matrix(1 0 0 1 53.4128 24.6232)"><tspan x="0" y="0" font-family="'Circe-Regular'" font-size="7">Asset</tspan><tspan x="0" y="8.676" font-family="'Circe-Regular'" font-size="7">scheme #1</tspan></text>
<text transform="matrix(1 0 0 1 166.0197 232.9857)"><tspan x="0" y="0" font-family="'Circe-Regular'" font-size="7">Smart asset</tspan><tspan x="0" y="8" font-family="'Circe-Regular'" font-size="7">scheme #2</tspan></text>
<rect x="14.207" y="116.424" fill="none" width="94.667" height="32.667"/>
<text transform="matrix(1 0 0 1 14.2067 121.3243)"><tspan x="0" y="0" font-family="'Circe-Bold'" font-size="7">Foundation Community:</tspan><tspan x="73.58" y="0" font-family="'Circe-Regular'" font-size="7"> </tspan><tspan x="0" y="11" font-family="'Circe-Regular'" font-size="7">can code new smart-contracts  </tspan><tspan x="0" y="19.4" font-family="'Circe-Regular'" font-size="7">for new products of interest</tspan></text>
<rect x="15.207" y="178.231" fill="none" width="94.667" height="32.667"/>
<text transform="matrix(1 0 0 1 15.2068 183.201)"><tspan x="0" y="0" font-family="'Circe-Bold'" font-size="7">Product</tspan><tspan x="24.261" y="0" font-family="'MyriadPro-Regular'" font-size="7"> </tspan><tspan x="25.745" y="0" font-family="'Circe-Bold'" font-size="7">Community</tspan><tspan x="0" y="11" font-family="'Circe-Regular'" font-size="7">for example car owners </tspan><tspan x="0" y="19.4" font-family="'Circe-Regular'" font-size="7">community</tspan></text>
<g>
	
		<line fill="none" stroke="#000000" stroke-width="0.482" stroke-linecap="round" stroke-miterlimit="10" stroke-dasharray="1,1" x1="65.62" y1="37.347" x2="65.62" y2="44.693"/>
	
		<line fill="none" stroke="#000000" stroke-width="0.482" stroke-linecap="round" stroke-miterlimit="10" x1="65.62" y1="45.448" x2="66.77" y2="42.609"/>
	
		<line fill="none" stroke="#000000" stroke-width="0.482" stroke-linecap="round" stroke-miterlimit="10" x1="65.62" y1="45.448" x2="64.418" y2="42.609"/>
</g>
</svg>
